<svg xmlns="http://www.w3.org/2000/svg" fill="none" viewBox="0 0 1510 1510">
  <path fill="red" stroke="#0F0" stroke-width="32" d="M1494 32V16H152C77 16 16 77 16 152v1342h1342c75 0 136-61 136-136V32Z"/>
  <path fill="#0F0" fill-rule="evenodd" d="M366 32h32v271h848v108c27 12 38 32 31 62-10 24-29 35-55 32-29-9-42-28-39-58 4-17 14-29 30-35l1-77c-177-1-354-2-531-1v76l-3 3-12 1-187 1-3 3-1 121-1 2c-9 2-18 2-26 1l-3-1c-2-52-2-104-1-155l3-3 198-1 3-3 1-44c-108-1-215 0-322 1-9 13-21 22-36 24-30 2-48-11-57-38-4-31 9-50 38-60 31-4 51 9 61 40l31 1V171h-6c-56-2-112-2-168-2v29c-1 119-2 239-1 359h-31V137l206 2V32Z" clip-rule="evenodd"/>
  <path fill="#0F0" fill-rule="evenodd" d="M531 32h32v107h832v1248H147l-1-588c-10-4-18-10-24-19a55 55 0 0 1-2-54c21-27 45-32 75-14 21 19 24 41 11 67-1 0-2 1-1 2-7 8-15 14-25 18-1 20-2 41-1 62h139V478h32v384h65V758h144v32H447c-1 84 0 168 1 252l95-1c20-26 45-31 74-13 22 21 24 45 8 71-21 22-45 24-70 8-10-8-16-18-18-29v-4H415V894h-98c-46-1-92-2-138-1v462h1184V172c-278-1-555-2-832-1V32Z" clip-rule="evenodd"/>
  <path fill="#0F0" fill-rule="evenodd" d="M1090 459v175l96-1 4-8c16-18 34-23 57-16 26 11 36 31 31 60-8 24-25 36-50 37-26-2-42-16-47-40h-91v401H915v-32l142-1 1-545c-18-1-35 0-52 1l-10 16c-19 18-40 22-63 10-23-15-30-36-22-61 12-26 32-36 61-31 17 5 28 17 34 35h84Z" clip-rule="evenodd"/>
  <path fill="#0F0" fill-rule="evenodd" d="m895 1198 319 1-1-280c-27-14-37-36-29-65 14-28 36-38 67-28 23 12 33 31 28 58-5 17-16 29-33 36v311c-116-1-232 0-347 1-12 30-33 41-64 34-29-14-38-36-28-66 14-25 35-34 63-25 10 5 19 12 25 23ZM350 1060c-3 46-3 92-1 138l284-1c12-21 30-28 54-22 24 10 34 29 29 56-2 13-9 22-21 28-31 11-53 2-66-27-57-1-114-2-170-1H317l-1-159v-13c-11-4-19-10-25-19-13-25-10-48 11-67 14-11 31-13 49-8 25 11 35 31 31 59-5 17-15 29-32 36Z" clip-rule="evenodd"/>
  <path fill="#0F0" d="M707 825v-14c0-21 4-38 12-51 9-13 22-24 41-33l10-5c18-8 32-17 41-27 10-9 15-22 15-38 0-12-3-21-9-29-6-9-14-15-24-20-11-4-23-6-37-6s-27 2-39 7c-11 5-20 12-27 22-6 9-10 21-10 36v13h-78v-12a124 124 0 0 1 76-117c23-11 49-16 78-16 28 0 54 5 76 15 22 11 40 25 52 43 13 19 20 40 20 64s-5 44-14 59c-8 16-20 28-33 38-13 9-27 17-41 24l-10 4c-7 4-12 8-15 12-3 5-4 11-4 20v11h-80Zm42 146c-16 0-29-5-40-15a56 56 0 0 1-17-42c0-16 6-30 17-40 11-11 24-17 40-17a55 55 0 0 1 57 57c0 17-5 31-16 42a56 56 0 0 1-41 15Z"/>
</svg>