<svg width="1510" height="1510" viewBox="0 0 1510 1510" fill="none" xmlns="http://www.w3.org/2000/svg">
<path d="M1494 32V16H1478H152C76.8893 16 16 76.8893 16 152V1478V1494H32H1358C1433.11 1494 1494 1433.11 1494 1358V32Z" stroke="white" stroke-width="32"/>
<mask id="path-2-inside-1_31_8" fill="white">
<path fill-rule="evenodd" clip-rule="evenodd" d="M366.127 32H398.127V303H1246.13V411C1273.13 423 1284.13 443 1277.13 473C1267.13 497 1248.13 508 1222.13 505C1193.13 496 1180.13 477 1183.13 447C1187.13 430 1197.13 418 1213.13 412L1214.13 335C1037.13 334 860.127 333 683.127 334V410L680.127 413L668.127 414L481.127 415L478.127 418L477.127 539L476.127 541C467.127 543 458.127 543 450.127 542L447.127 541C445.127 489 445.127 437 446.127 386L449.127 383L647.127 382L650.127 379L651.127 335C543.127 334 436.127 335 329.127 336C320.127 349 308.127 358 293.127 360C263.127 362 245.127 349 236.127 322C232.127 291 245.127 272 274.127 262C305.127 258 325.127 271 335.127 302L366.127 303V171H360.127C304.127 169 248.127 169 192.127 169V198C191.127 317 190.127 437 191.127 557H160.127V137L366.127 139V32Z"/>
</mask>
<path d="M366.127 32V-88H246.127V32H366.127ZM398.127 32H518.127V-88H398.127V32ZM398.127 303H278.127V423H398.127V303ZM1246.13 303H1366.13V183H1246.13V303ZM1246.13 411H1126.13V488.985L1197.39 520.657L1246.13 411ZM1277.13 473L1387.9 519.154L1391.73 509.963L1393.99 500.268L1277.13 473ZM1222.13 505L1186.56 619.608L1197.25 622.926L1208.37 624.209L1222.13 505ZM1183.13 447L1066.32 419.515L1064.51 427.202L1063.72 435.06L1183.13 447ZM1213.13 412L1255.26 524.36L1332.05 495.563L1333.12 413.558L1213.13 412ZM1214.13 335L1334.12 336.558L1335.69 215.685L1214.8 215.002L1214.13 335ZM683.127 334L682.449 214.002L563.127 214.676V334H683.127ZM683.127 410L767.98 494.853L803.127 459.706V410H683.127ZM680.127 413L690.092 532.585L733.897 528.935L764.98 497.853L680.127 413ZM668.127 414L668.768 533.998L673.438 533.973L678.092 533.585L668.127 414ZM481.127 415L480.485 295.002L431.156 295.266L396.274 330.147L481.127 415ZM478.127 418L393.274 333.147L358.537 367.884L358.131 417.008L478.127 418ZM477.127 539L584.458 592.666L596.893 567.796L597.123 539.992L477.127 539ZM476.127 541L502.158 658.142L557.915 645.752L583.458 594.666L476.127 541ZM450.127 542L412.179 655.842L423.452 659.6L435.243 661.073L450.127 542ZM447.127 541L327.215 545.612L330.407 628.584L409.179 654.842L447.127 541ZM446.127 386L361.274 301.147L327.097 335.324L326.15 383.648L446.127 386ZM449.127 383L448.521 263.002L399.17 263.251L364.274 298.147L449.127 383ZM647.127 382L647.733 501.998L697.083 501.749L731.98 466.853L647.127 382ZM650.127 379L734.98 463.853L769.002 429.83L770.096 381.727L650.127 379ZM651.127 335L771.096 337.727L773.859 216.131L652.238 215.005L651.127 335ZM329.127 336L328.005 216.005L265.847 216.586L230.464 267.695L329.127 336ZM293.127 360L301.109 479.734L305.061 479.471L308.986 478.947L293.127 360ZM236.127 322L117.113 337.357L118.603 348.903L122.285 359.947L236.127 322ZM274.127 262L258.77 142.987L246.604 144.556L235.008 148.555L274.127 262ZM335.127 302L220.922 338.84L246.849 419.215L331.258 421.938L335.127 302ZM366.127 303L362.258 422.938L486.127 426.933V303H366.127ZM366.127 171H486.127V51H366.127V171ZM360.127 171L355.844 290.924L357.985 291H360.127V171ZM192.127 169V49H72.1267V169H192.127ZM192.127 198L312.122 199.008L312.127 198.504V198H192.127ZM191.127 557V677H312.131L311.123 556L191.127 557ZM160.127 557H40.1267V677H160.127V557ZM160.127 137L161.292 17.0057L40.1267 15.8293V137H160.127ZM366.127 139L364.962 258.994L486.127 260.171V139H366.127ZM366.127 152H398.127V-88H366.127V152ZM278.127 32V303H518.127V32H278.127ZM398.127 423H1246.13V183H398.127V423ZM1126.13 303V411H1366.13V303H1126.13ZM1197.39 520.657C1194.27 519.271 1178.48 511.245 1167.57 489.955C1156.42 468.187 1159.27 449.982 1160.27 445.732L1393.99 500.268C1401.98 466.018 1402.83 422.813 1381.18 380.545C1359.78 338.755 1324.98 314.729 1294.86 301.343L1197.39 520.657ZM1166.36 426.846C1169.39 419.559 1177.71 405.61 1195.34 395.37C1212.84 385.2 1228.72 384.964 1235.88 385.791L1208.37 624.209C1241.54 628.036 1279.91 623.8 1315.92 602.88C1352.04 581.89 1374.86 550.441 1387.9 519.154L1166.36 426.846ZM1257.69 390.392C1260.81 391.36 1276.99 397.339 1290.07 416.716C1303.39 436.429 1302.99 454.396 1302.53 458.94L1063.72 435.06C1060.27 469.604 1064.87 512.071 1091.18 551.034C1117.27 589.661 1154.44 609.64 1186.56 619.608L1257.69 390.392ZM1299.94 474.485C1298.22 481.769 1294.07 492.502 1285.01 503.149C1275.75 514.026 1264.78 520.79 1255.26 524.36L1170.99 299.64C1114.75 320.732 1078.79 366.485 1066.32 419.515L1299.94 474.485ZM1333.12 413.558L1334.12 336.558L1094.14 333.442L1093.14 410.442L1333.12 413.558ZM1214.8 215.002C1037.92 214.003 860.24 212.997 682.449 214.002L683.805 453.998C860.014 453.003 1036.34 453.997 1213.45 454.998L1214.8 215.002ZM563.127 334V410H803.127V334H563.127ZM598.274 325.147L595.274 328.147L764.98 497.853L767.98 494.853L598.274 325.147ZM670.161 293.415L658.161 294.415L678.092 533.585L690.092 532.585L670.161 293.415ZM667.485 294.002L480.485 295.002L481.768 534.998L668.768 533.998L667.485 294.002ZM396.274 330.147L393.274 333.147L562.98 502.853L565.98 499.853L396.274 330.147ZM358.131 417.008L357.131 538.008L597.123 539.992L598.123 418.992L358.131 417.008ZM369.795 485.334L368.795 487.334L583.458 594.666L584.458 592.666L369.795 485.334ZM450.095 423.858C457.311 422.254 462.519 422.615 465.011 422.927L435.243 661.073C453.734 663.385 476.942 663.746 502.158 658.142L450.095 423.858ZM488.074 428.158L485.074 427.158L409.179 654.842L412.179 655.842L488.074 428.158ZM567.038 536.388C565.153 487.384 565.134 437.823 566.104 388.352L326.15 383.648C325.12 436.177 325.1 490.616 327.215 545.612L567.038 536.388ZM530.98 470.853L533.98 467.853L364.274 298.147L361.274 301.147L530.98 470.853ZM449.733 502.998L647.733 501.998L646.521 262.002L448.521 263.002L449.733 502.998ZM731.98 466.853L734.98 463.853L565.274 294.147L562.274 297.147L731.98 466.853ZM770.096 381.727L771.096 337.727L531.158 332.273L530.158 376.273L770.096 381.727ZM652.238 215.005C542.938 213.993 434.827 215.007 328.005 216.005L330.248 455.995C437.426 454.993 543.315 454.007 650.016 454.995L652.238 215.005ZM230.464 267.695C235.067 261.045 250.071 244.679 277.267 241.053L308.986 478.947C366.182 471.321 405.186 436.955 427.79 404.305L230.464 267.695ZM285.144 240.266C288.946 240.012 305.662 240.018 324.229 252.644C342.601 265.137 348.776 280.475 349.969 284.053L122.285 359.947C132.477 390.525 152.152 425.863 189.275 451.106C226.592 476.482 267.307 481.988 301.109 479.734L285.144 240.266ZM355.14 306.643C355.652 310.611 356.721 328.836 343.569 349.209C330.875 368.872 315.004 374.839 313.246 375.445L235.008 148.555C204.25 159.161 167.379 179.628 141.935 219.041C116.032 259.164 112.601 302.389 117.113 337.357L355.14 306.643ZM289.483 381.013C285.43 381.536 267.13 382.593 246.798 369.29C227.044 356.364 221.397 340.315 220.922 338.84L449.332 265.16C438.856 232.685 418.21 194.636 378.205 168.46C337.624 141.907 293.824 138.464 258.77 142.987L289.483 381.013ZM331.258 421.938L362.258 422.938L369.996 183.062L338.996 182.062L331.258 421.938ZM486.127 303V171H246.127V303H486.127ZM366.127 51H360.127V291H366.127V51ZM364.41 51.0765C305.912 48.9873 247.77 49 192.127 49V289C248.483 289 302.341 289.013 355.844 290.924L364.41 51.0765ZM72.1267 169V198H312.127V169H72.1267ZM72.1309 196.992C71.1323 315.835 70.1211 436.832 71.1309 558L311.123 556C310.132 437.168 311.121 318.165 312.122 199.008L72.1309 196.992ZM191.127 437H160.127V677H191.127V437ZM280.127 557V137H40.1267V557H280.127ZM158.962 256.994L364.962 258.994L367.292 19.0057L161.292 17.0057L158.962 256.994ZM486.127 139V32H246.127V139H486.127Z" fill="white" mask="url(#path-2-inside-1_31_8)"/>
<mask id="path-4-inside-2_31_8" fill="white">
<path fill-rule="evenodd" clip-rule="evenodd" d="M531.127 32H563.127V139H1395.13V1387H147.127L146.127 799C136.432 795.165 128.084 788.556 122.127 780C117.174 771.932 114.388 762.723 114.038 753.263C113.687 743.802 115.785 734.412 120.127 726C141.127 699 165.127 694 195.127 712C216.127 731 219.127 753 206.127 779C205.127 779 204.127 780 205.127 781C198.127 789 190.127 795 180.127 799C179.127 819 178.127 840 179.127 861H318.127V478H350.127V862H415.127V758H559.127V790H447.127C446.127 874 447.127 958 448.127 1042L543.127 1041C563.127 1015 588.127 1010 617.127 1028C639.127 1049 641.127 1073 625.127 1099C604.127 1121 580.127 1123 555.127 1107C545.127 1099 539.127 1089 537.127 1078V1074H415.127V894H317.127C271.127 893 225.127 892 179.127 893V1355H1363.13V172C1085.13 171 808.127 170 531.127 171V32Z"/>
</mask>
<path d="M531.127 32V-88H411.127V32H531.127ZM563.127 32H683.127V-88H563.127V32ZM563.127 139H443.127V259H563.127V139ZM1395.13 139H1515.13V19H1395.13V139ZM1395.13 1387V1507H1515.13V1387H1395.13ZM147.127 1387L27.1268 1387.2L27.3306 1507H147.127V1387ZM146.127 799L266.126 798.796L265.988 717.367L190.268 687.413L146.127 799ZM122.127 780L19.8576 842.778L21.6682 845.727L23.6458 848.568L122.127 780ZM120.127 726L25.4044 652.327L18.5871 661.092L13.4939 670.959L120.127 726ZM195.127 712L275.636 623.016L266.932 615.14L256.866 609.101L195.127 712ZM206.127 779V899H280.291L313.458 832.666L206.127 779ZM205.127 781L295.436 860.021L369.364 775.531L289.979 696.147L205.127 781ZM180.127 799L135.56 687.583L64.1188 716.159L60.2764 793.007L180.127 799ZM179.127 861L59.2625 866.708L64.705 981H179.127V861ZM318.127 861V981H438.127V861H318.127ZM318.127 478V358H198.127V478H318.127ZM350.127 478H470.127V358H350.127V478ZM350.127 862H230.127V982H350.127V862ZM415.127 862V982H535.127V862H415.127ZM415.127 758V638H295.127V758H415.127ZM559.127 758H679.127V638H559.127V758ZM559.127 790V910H679.127V790H559.127ZM447.127 790V670H328.547L327.135 788.572L447.127 790ZM448.127 1042L328.135 1043.43L329.562 1163.25L449.39 1161.99L448.127 1042ZM543.127 1041L544.39 1160.99L602.692 1160.38L638.242 1114.17L543.127 1041ZM617.127 1028L699.984 941.197L690.983 932.605L680.41 926.043L617.127 1028ZM625.127 1099L711.929 1181.86L720.682 1172.69L727.326 1161.89L625.127 1099ZM555.127 1107L480.163 1200.7L485.107 1204.66L490.44 1208.07L555.127 1107ZM537.127 1078H417.127V1088.82L419.062 1099.47L537.127 1078ZM537.127 1074H657.127V954H537.127V1074ZM415.127 1074H295.127V1194H415.127V1074ZM415.127 894H535.127V774H415.127V894ZM317.127 894L314.519 1013.97L315.822 1014H317.127V894ZM179.127 893L176.519 773.028L59.1267 775.58L59.1267 893H179.127ZM179.127 1355H59.1267V1475H179.127V1355ZM1363.13 1355V1475H1483.13V1355H1363.13ZM1363.13 172H1483.13V52.4309L1363.56 52.0008L1363.13 172ZM531.127 171H411.127V291.434L531.56 290.999L531.127 171ZM531.127 152H563.127V-88H531.127V152ZM443.127 32V139H683.127V32H443.127ZM563.127 259H1395.13V19H563.127V259ZM1275.13 139V1387H1515.13V139H1275.13ZM1395.13 1267H147.127V1507H1395.13V1267ZM267.126 1386.8L266.126 798.796L26.1268 799.204L27.1268 1387.2L267.126 1386.8ZM190.268 687.413C202.523 692.261 213.077 700.616 220.608 711.432L23.6458 848.568C43.0908 876.496 70.3408 898.069 101.985 910.587L190.268 687.413ZM224.396 717.222C230.249 726.757 233.541 737.641 233.955 748.821L-5.88009 757.704C-4.76526 787.804 4.09992 817.107 19.8576 842.778L224.396 717.222ZM233.955 748.821C234.37 760.001 231.891 771.099 226.759 781.041L13.4939 670.959C-0.321684 697.725 -6.99491 727.604 -5.88009 757.704L233.955 748.821ZM214.849 799.673C214.596 799.999 202.738 815.01 176.869 819.974C150.745 824.988 133.964 815.245 133.387 814.899L256.866 609.101C226.289 590.755 182.509 574.512 131.634 584.276C81.0155 593.99 46.6577 625.001 25.4044 652.327L214.849 799.673ZM114.617 800.984C109.683 796.52 98.2746 783.392 94.8343 761.522C91.5855 740.869 97.8308 727.264 98.7954 725.334L313.458 832.666C327.423 804.736 338.668 767.131 331.919 724.228C324.979 680.108 301.57 646.48 275.636 623.016L114.617 800.984ZM206.127 659C170.67 659 130.257 675.221 105.031 713.061C90.8425 734.343 81.4183 763.465 85.7731 796.125C90.0457 828.17 105.909 851.488 120.274 865.853L289.979 696.147C303.844 710.012 319.458 732.83 323.668 764.406C327.96 796.598 318.661 825.282 304.723 846.189C279.996 883.279 240.583 899 206.127 899V659ZM114.817 701.979C116.503 700.053 119.258 697.297 123.171 694.452C127.152 691.557 131.399 689.247 135.56 687.583L224.694 910.417C254.153 898.633 277.356 880.683 295.436 860.021L114.817 701.979ZM60.2764 793.007C59.3077 812.381 57.9433 839.005 59.2625 866.708L298.991 855.292C298.31 840.995 298.946 825.619 299.977 804.993L60.2764 793.007ZM179.127 981H318.127V741H179.127V981ZM438.127 861V478H198.127V861H438.127ZM318.127 598H350.127V358H318.127V598ZM230.127 478V862H470.127V478H230.127ZM350.127 982H415.127V742H350.127V982ZM535.127 862V758H295.127V862H535.127ZM415.127 878H559.127V638H415.127V878ZM439.127 758V790H679.127V758H439.127ZM559.127 670H447.127V910H559.127V670ZM327.135 788.572C326.115 874.238 327.138 959.667 328.135 1043.43L568.118 1040.57C567.115 956.333 566.138 873.762 567.118 791.428L327.135 788.572ZM449.39 1161.99L544.39 1160.99L541.864 921.007L446.864 922.007L449.39 1161.99ZM638.242 1114.17C636.057 1117.01 623.47 1131.47 598.218 1136.06C572.953 1140.66 556.316 1131.49 553.843 1129.96L680.41 926.043C648.937 906.508 605.3 890.842 555.285 899.936C505.284 909.027 470.197 938.994 448.012 967.835L638.242 1114.17ZM534.27 1114.8C529.711 1110.45 518.417 1096.81 516.036 1074.19C513.759 1052.56 521.35 1038.67 522.928 1036.11L727.326 1161.89C744.904 1133.33 759.494 1094.44 754.717 1049.06C749.836 1002.69 726.542 966.548 699.984 941.197L534.27 1114.8ZM538.324 1016.14C542.564 1011.7 556.144 1000.35 578.932 997.923C601.142 995.561 615.898 1003.42 619.813 1005.93L490.44 1208.07C519.355 1226.58 558.612 1241.44 604.321 1236.58C650.61 1231.65 686.689 1208.3 711.929 1181.86L538.324 1016.14ZM630.09 1013.3C640.842 1021.9 651.6 1036.78 655.191 1056.53L419.062 1099.47C426.654 1141.22 449.412 1176.1 480.163 1200.7L630.09 1013.3ZM657.127 1078V1074H417.127V1078H657.127ZM537.127 954H415.127V1194H537.127V954ZM535.127 1074V894H295.127V1074H535.127ZM415.127 774H317.127V1014H415.127V774ZM319.735 774.028C274.17 773.038 225.561 771.962 176.519 773.028L181.735 1012.97C224.692 1012.04 268.083 1012.96 314.519 1013.97L319.735 774.028ZM59.1267 893V1355H299.127V893H59.1267ZM179.127 1475H1363.13V1235H179.127V1475ZM1483.13 1355V172H1243.13V1355H1483.13ZM1363.56 52.0008C1085.63 51.001 808.199 49.999 530.693 51.0008L531.56 290.999C808.055 290.001 1084.62 290.999 1362.7 291.999L1363.56 52.0008ZM651.127 171V32H411.127V171H651.127Z" fill="white" mask="url(#path-4-inside-2_31_8)"/>
<path d="M948.61 476.461C948.61 476.461 948.613 476.466 948.618 476.477C948.612 476.467 948.61 476.462 948.61 476.461Z" stroke="white" stroke-width="120"/>
<mask id="path-7-inside-3_31_8" fill="white">
<path fill-rule="evenodd" clip-rule="evenodd" d="M895.127 1198L1214.13 1199L1213.13 919C1186.13 905 1176.13 883 1184.13 854C1198.13 826 1220.13 816 1251.13 826C1274.13 838 1284.13 857 1279.13 884C1274.13 901 1263.13 913 1246.13 920V1231C1130.13 1230 1014.13 1231 899.127 1232C887.127 1262 866.127 1273 835.127 1266C806.127 1252 797.127 1230 807.127 1200C821.127 1175 842.127 1166 870.127 1175C880.127 1180 889.127 1187 895.127 1198Z"/>
</mask>
<path d="M895.127 1198L789.779 1255.46L823.769 1317.78L894.751 1318L895.127 1198ZM1214.13 1199L1213.75 1319L1334.56 1319.38L1334.13 1198.57L1214.13 1199ZM1213.13 919L1333.13 918.572L1332.87 845.915L1268.36 812.47L1213.13 919ZM1184.13 854L1076.8 800.334L1071.56 810.804L1068.45 822.089L1184.13 854ZM1251.13 826L1306.63 719.61L1297.63 714.913L1287.97 711.795L1251.13 826ZM1279.13 884L1394.25 917.86L1396 911.929L1397.12 905.851L1279.13 884ZM1246.13 920L1200.44 809.039L1126.13 839.637V920H1246.13ZM1246.13 1231L1245.09 1351L1366.13 1352.04V1231H1246.13ZM899.127 1232L898.083 1112L817.601 1112.7L787.71 1187.43L899.127 1232ZM835.127 1266L782.957 1374.07L795.313 1380.03L808.696 1383.05L835.127 1266ZM807.127 1200L702.426 1141.37L696.877 1151.28L693.285 1162.05L807.127 1200ZM870.127 1175L923.792 1067.67L915.585 1063.56L906.848 1060.76L870.127 1175ZM894.751 1318L1213.75 1319L1214.5 1079L895.503 1078L894.751 1318ZM1334.13 1198.57L1333.13 918.572L1093.13 919.429L1094.13 1199.43L1334.13 1198.57ZM1268.36 812.47C1272.19 814.451 1286.05 823.058 1295 843.038C1304.12 863.385 1301.35 880.305 1299.81 885.912L1068.45 822.089C1058.9 856.695 1057.13 899.115 1076 941.212C1094.71 982.942 1127.07 1009.55 1157.89 1025.53L1268.36 812.47ZM1291.46 907.666C1289.99 910.608 1280.98 926.46 1258.37 936.112C1235.5 945.877 1217.57 941.264 1214.29 940.205L1287.97 711.795C1253.68 700.736 1209.25 696.123 1164.13 715.389C1119.28 734.541 1092.27 769.392 1076.8 800.334L1291.46 907.666ZM1195.62 932.39C1190.31 929.622 1177.12 920.918 1168.02 902.481C1158.84 883.876 1160.05 867.986 1161.13 862.149L1397.12 905.851C1403.2 873.014 1401.92 834.124 1383.24 796.269C1364.64 758.582 1334.94 734.378 1306.63 719.61L1195.62 932.39ZM1164 850.14C1166.21 842.651 1170.72 833.33 1178.67 824.663C1186.51 816.104 1194.78 811.37 1200.44 809.039L1291.82 1030.96C1340.99 1010.71 1378.55 971.244 1394.25 917.86L1164 850.14ZM1126.13 920V1231H1366.13V920H1126.13ZM1247.16 1111C1129.95 1109.99 1012.92 1111.01 898.083 1112L900.17 1352C1015.33 1350.99 1130.3 1350.01 1245.09 1351L1247.16 1111ZM787.71 1187.43C788.591 1185.23 796.056 1168.49 818.105 1156.82C840.282 1145.08 858.632 1148.29 861.558 1148.95L808.696 1383.05C842.621 1390.71 886.972 1391.92 930.398 1368.93C973.697 1346.01 997.663 1308.77 1010.54 1276.57L787.71 1187.43ZM887.297 1157.93C890.127 1159.3 907.061 1168.56 917.122 1192.49C927.151 1216.34 921.986 1234.89 920.969 1237.95L693.285 1162.05C682.267 1195.11 676.602 1239.66 695.882 1285.51C715.193 1331.44 751.127 1358.7 782.957 1374.07L887.297 1157.93ZM911.828 1258.63C909.438 1262.9 899.781 1277.33 878.4 1285.98C856.618 1294.8 838.985 1291.04 833.406 1289.24L906.848 1060.76C873.268 1049.96 831.135 1046.2 788.354 1063.52C745.973 1080.67 718.815 1112.1 702.426 1141.37L911.828 1258.63ZM816.461 1282.33C814.395 1281.3 809.939 1278.82 804.732 1274.23C799.266 1269.41 793.941 1263.09 789.779 1255.46L1000.47 1140.54C979.419 1101.94 948.55 1080.05 923.792 1067.67L816.461 1282.33Z" fill="white" mask="url(#path-7-inside-3_31_8)"/>
<mask id="path-9-inside-4_31_8" fill="white">
<path fill-rule="evenodd" clip-rule="evenodd" d="M350.127 1060C347.09 1105.94 346.756 1152.02 349.127 1198L633.127 1197C645.127 1176 663.127 1169 687.127 1175C711.127 1185 721.127 1204 716.127 1231C714.127 1244 707.127 1253 695.127 1259C664.127 1270 642.127 1261 629.127 1232C572.127 1231 515.127 1230 459.127 1231H317.127L316.127 1072V1059C305.127 1055 297.127 1049 291.127 1040C278.127 1015 281.127 992 302.127 973C316.127 962 333.127 960 351.127 965C376.127 976 386.127 996 382.127 1024C377.127 1041 367.127 1053 350.127 1060Z"/>
</mask>
<path d="M350.127 1060L304.437 949.039L235.318 977.499L230.388 1052.09L350.127 1060ZM349.127 1198L229.286 1204.18L235.175 1318.4L349.549 1318L349.127 1198ZM633.127 1197L633.549 1317L702.905 1316.76L737.316 1256.54L633.127 1197ZM687.127 1175L733.28 1064.23L724.968 1060.77L716.231 1058.58L687.127 1175ZM716.127 1231L598.133 1209.15L597.8 1210.95L597.522 1212.75L716.127 1231ZM695.127 1259L735.256 1372.09L742.201 1369.63L748.792 1366.33L695.127 1259ZM629.127 1232L738.628 1182.91L707.447 1113.36L631.232 1112.02L629.127 1232ZM459.127 1231V1351H460.198L461.269 1350.98L459.127 1231ZM317.127 1231L197.129 1231.75L197.879 1351H317.127V1231ZM316.127 1072H196.127V1072.38L196.129 1072.75L316.127 1072ZM316.127 1059H436.127V974.949L357.136 946.225L316.127 1059ZM291.127 1040L184.661 1095.36L187.667 1101.14L191.281 1106.56L291.127 1040ZM302.127 973L227.988 878.642L224.709 881.218L221.617 884.016L302.127 973ZM351.127 965L399.455 855.162L391.558 851.687L383.244 849.378L351.127 965ZM382.127 1024L497.25 1057.86L499.695 1049.55L500.921 1040.97L382.127 1024ZM230.388 1052.09C227.041 1102.72 226.673 1153.5 229.286 1204.18L468.967 1191.82C466.839 1150.54 467.139 1109.16 469.865 1067.91L230.388 1052.09ZM349.549 1318L633.549 1317L632.704 1077L348.704 1078L349.549 1318ZM737.316 1256.54C733.089 1263.93 721.851 1278.57 700.46 1287.19C679.818 1295.5 663.261 1292.73 658.022 1291.42L716.231 1058.58C686.992 1051.27 649.435 1049 610.793 1064.56C571.402 1080.43 545.164 1109.07 528.937 1137.46L737.316 1256.54ZM640.973 1285.77C633.128 1282.5 616.913 1272.9 606.036 1251.99C595.469 1231.67 597.146 1214.48 598.133 1209.15L834.12 1252.85C840.107 1220.52 839.284 1180.33 818.968 1141.26C798.341 1101.6 765.126 1077.5 733.28 1064.23L640.973 1285.77ZM597.522 1212.75C599.191 1201.9 603.829 1188.24 613.688 1175.21C623.312 1162.49 634.177 1155.31 641.461 1151.67L748.792 1366.33C792.669 1344.39 826.331 1303.85 834.731 1249.25L597.522 1212.75ZM654.997 1145.91C656.6 1145.34 675.567 1139.11 700.813 1149.43C726.857 1160.09 736.875 1179 738.628 1182.91L519.625 1281.09C534.378 1314 561.896 1351.91 609.941 1371.57C657.186 1390.89 702.653 1383.66 735.256 1372.09L654.997 1145.91ZM631.232 1112.02C574.614 1111.03 515.471 1109.97 456.984 1111.02L461.269 1350.98C514.782 1350.03 569.639 1350.97 627.022 1351.98L631.232 1112.02ZM459.127 1111H317.127V1351H459.127V1111ZM437.124 1230.25L436.124 1071.25L196.129 1072.75L197.129 1231.75L437.124 1230.25ZM436.127 1072V1059H196.127V1072H436.127ZM357.136 946.225C361.078 947.658 367.326 950.505 374.215 955.724C381.291 961.085 386.899 967.326 390.973 973.436L191.281 1106.56C213.054 1139.22 242.917 1160.07 275.117 1171.78L357.136 946.225ZM397.593 984.638C399.695 988.681 405.576 1002.61 402.451 1022.69C399.19 1043.65 388.411 1056.76 382.636 1061.98L221.617 884.016C194.842 908.241 172.063 942.346 165.303 985.805C158.678 1028.39 169.558 1066.32 184.661 1095.36L397.593 984.638ZM376.265 1067.36C366.787 1074.81 355.142 1079.82 343.103 1081.65C331.738 1083.37 323.234 1081.8 319.009 1080.62L383.244 849.378C336.98 836.527 278.342 839.078 227.988 878.642L376.265 1067.36ZM302.798 1074.84C295.478 1071.62 280.873 1062.44 270.991 1043.4C261.608 1025.32 262.834 1010.52 263.333 1007.03L500.921 1040.97C505.419 1009.48 503.646 970.679 484.012 932.848C463.881 894.058 431.776 869.383 399.455 855.162L302.798 1074.84ZM267.003 990.14C268.525 984.966 272.23 975.973 280.317 966.729C288.582 957.285 297.732 951.799 304.437 949.039L395.817 1170.96C448.76 1149.16 482.713 1107.29 497.25 1057.86L267.003 990.14Z" fill="white" mask="url(#path-9-inside-4_31_8)"/>
<path d="M707.4 825V810.6C707.4 790.2 711.4 773.4 719.4 760.2C727.8 747 741.2 736 759.6 727.2L769.8 722.4C787.8 714 801.6 705 811.2 695.4C820.8 685.8 825.6 673 825.6 657C825.6 645.4 822.6 635.6 816.6 627.6C811 619.2 803 612.8 792.6 608.4C782.2 604 770 601.8 756 601.8C741.6 601.8 728.6 604.2 717 609C705.8 613.8 696.8 621 690 630.6C683.6 640.2 680.4 652.2 680.4 666.6V679.8H602.4V667.8C602.4 640.2 609.2 616.4 622.8 596.4C636.4 576.4 654.8 561.2 678 550.8C701.2 540 727.2 534.6 756 534.6C784.4 534.6 809.6 539.8 831.6 550.2C854 560.6 871.6 575 884.4 593.4C897.2 611.8 903.6 633 903.6 657C903.6 681 899.2 700.8 890.4 716.4C881.6 731.6 870.4 744 856.8 753.6C843.6 762.8 830 770.8 816 777.6L805.8 782.4C798.6 785.6 793.6 789.6 790.8 794.4C788 798.8 786.6 805.4 786.6 814.2V825H707.4ZM749.4 971.4C733.4 971.4 719.8 966.2 708.6 955.8C697.8 945 692.4 931.2 692.4 914.4C692.4 897.6 697.8 884 708.6 873.6C719.8 862.8 733.4 857.4 749.4 857.4C765.8 857.4 779.4 862.8 790.2 873.6C801 884 806.4 897.6 806.4 914.4C806.4 931.2 801 945 790.2 955.8C779.4 966.2 765.8 971.4 749.4 971.4Z" fill="white"/>
</svg>
