<svg xmlns="http://www.w3.org/2000/svg" style="shape-rendering:geometricPrecision;text-rendering:geometricPrecision;image-rendering:optimizeQuality;fill-rule:evenodd;clip-rule:evenodd" viewBox="0 0 1636 1645">
  <path fill="#040707" d="M127 0h1310a135 135 0 0 1 81 39c10 12 19 25 26 40 3 10 6 21 7 33v1316a125 125 0 0 1-116 111H126a125 125 0 0 1-113-109V110A126 126 0 0 1 127 0Z" style="opacity:.997"/>
  <path fill="#edea67" d="M1505 27h13v12l-13-12Z" style="opacity:.848"/>
  <path fill="#0fae6a" d="m56 30-7 7v-7h7Z" style="opacity:.816"/>
  <path fill="#10af6a" d="M376 38v107l-206-2c-1 140-2 280-1 421h33V175a8736 8736 0 0 1 173 3v130h-30c-10-31-30-44-61-40-29 10-42 29-38 60 9 27 27 40 57 38 15-2 27-11 36-24 107-1 214-2 322-1l-1 44-3 3-198 1-3 3a3034 3034 0 0 0 4 156c8 1 17 1 26-1l1-2 1-121 3-3 187-1 12-1 3-3 1-75h110l-1 126c-40-7-79-8-118-3-71 11-124 46-162 106a184 184 0 0 0-25 81c0 1 0 3 2 4l13 1c-2 10-2 21-2 32 1 3 2 6 6 8l104 13c4-1 7-2 9-5 18-57 56-90 116-99 20-2 39 1 58 10v117l-63 54H569v-22H425v23h-65V484h-32v302l-112-1c13-26 10-48-11-67-30-18-54-13-75 14-9 18-8 36 2 54H51V113c8-42 33-67 75-75h250Z" style="opacity:1"/>
  <path fill="#010101" d="M376 38h32v271h848v108c27 12 38 32 31 62-10 24-29 35-55 32-29-9-42-28-39-58 4-17 14-29 30-35l1-77c-177-1-354-2-531-1v76l-3 3-12 1-187 1-3 3-1 121-1 2c-9 2-18 2-26 1l-3-1c-2-52-2-104-1-155l3-3 198-1 3-3 1-44c-108-1-215 0-322 1-9 13-21 22-36 24-30 2-48-11-57-38-4-31 9-50 38-60 31-4 51 9 61 40l31 1V177h-6c-56-2-112-2-168-2v29c-1 119-2 239-1 359h-31V143l206 2V38Z" style="opacity:1"/>
  <path fill="#19af6b" d="M408 38h133v139c277-1 554 0 832 1H804v130c150-1 301 0 452 1H408V38Z" style="opacity:1"/>
  <path fill="#010101" d="M541 38h32v107h832v1248H157l-1-588a53 53 0 0 1-24-19 55 55 0 0 1-2-54c21-27 45-32 75-14 21 19 24 41 11 67-1 0-2 1-1 2-7 8-15 14-25 18-1 20-2 41-1 62h139V484h32v384h65V764h144v32H457c-1 84 0 168 1 252l95-1c20-26 45-31 74-13 22 21 24 45 8 71-21 22-45 24-70 8-10-8-16-18-18-29v-4H425V900h-98c-46-1-92-2-138-1v462h1184V178c-278-1-555-2-832-1V38Z" style="opacity:1"/>
  <path fill="#0faf6b" d="M573 38h231v107H573V38Z" style="opacity:1"/>
  <path fill="#f0ed68" d="M804 38h628c34 3 59 20 74 51 3 8 6 16 7 25l1 669h-109V145H804V38Z" style="opacity:1"/>
  <path d="M1544 79c45 26 71 65 78 118v1290a152 152 0 0 1-138 136H249c-57-6-98-35-123-84h1309l21-3c54-16 86-52 95-108V112c-1-12-4-23-7-33Z" style="opacity:.996"/>
  <path fill="#527261" d="M170 143v420h31c-1-120 0-240 1-359v360h-33c-1-141 0-281 1-421Z" style="opacity:1"/>
  <path fill="#4a946e" d="M370 177h6v132l-31-1h30V178l-5-1Z" style="opacity:1"/>
  <path fill="#f0ed68" d="M1373 178v605h-273V672h91c5 24 21 38 47 40 25-1 42-13 50-37 5-29-5-49-31-60-23-7-41-2-57 16l-4 8h-95l-1-174h-84c-6-18-17-30-34-35-29-5-49 5-61 31-8 25-1 46 22 61 23 12 44 8 63-10l10-16h51v287h-92c34-51 40-105 16-162-10-22-23-40-39-56-36-53-84-85-145-97-2-43-3-85-2-127h419l-1 77c-16 6-26 18-30 35-3 30 10 49 39 58 26 3 45-8 55-32 7-30-4-50-31-62V309c-151-1-302-2-452-1V178h569Z" style="opacity:1"/>
  <path fill="#16ae6b" d="M289 288c17-2 29 6 35 23 1 24-11 35-34 35-17-5-25-17-24-34 3-13 11-21 23-24Z" style="opacity:1"/>
  <path fill="#596f5f" d="M1224 341H694l-1 75v-76c177-1 354 0 531 1Z" style="opacity:1"/>
  <path fill="#c3d96a" d="M804 341h1c-1 42 0 84 2 127l-4-1 1-126Z" style="opacity:1"/>
  <path fill="#020201" d="M1100 465v175l96-1 4-8c16-18 34-23 57-16 26 11 36 31 31 60-8 24-25 36-50 37-26-2-42-16-47-40h-91v401H925v-32l142-1 1-545c-18-1-35 0-52 1l-10 16c-19 18-40 22-63 10-23-15-30-36-22-61 12-26 32-36 61-31 17 5 28 17 34 35h84Z" style="opacity:1"/>
  <path fill="#eeeb68" d="M1235 435c15-2 27 5 33 20 2 25-10 37-35 35-15-6-22-18-20-33 3-12 11-19 22-22Z" style="opacity:1"/>
  <path fill="#efec68" d="M962 450c17-2 29 6 35 23 2 18-6 29-23 34-18 2-30-5-35-22-2-18 6-30 23-35Z" style="opacity:1"/>
  <path fill="#020202" d="m803 467 4 1c61 12 109 44 145 97 10 17 17 36 21 56 9 17 17 35 25 54-6 38-18 75-38 110l-14 19-115 110c-8 24-17 48-24 73H704c-2-8-4-15-4-22h-23c-4-38 0-75 12-110a182 182 0 0 1 50-67l2-2 63-54c14-11 26-23 36-37 4-5 8-10 10-16 13-56-7-95-59-117-36-11-70-10-104 3-31 14-53 38-65 70l-10 32a2223 2223 0 0 1-112-12c-1-3-2-6-1-8 2-28 10-54 24-77 38-60 91-95 162-106 39-5 78-4 118 3Z" style="opacity:1"/>
  <path fill="#fdfdfd" d="M773 948h-79v-29c0-31 8-59 25-84a469 469 0 0 1 104-97l22-22c22-25 30-54 25-87-11-42-37-70-78-84-37-10-74-9-109 4-44 20-72 54-82 101l-84-9c4-35 18-65 41-91 47-51 106-75 175-72 39-2 77 4 114 19 45 20 79 52 101 97 14 34 15 68 3 104-11 30-29 57-52 80-24 17-47 35-69 53-17 14-31 29-43 47-7 11-11 23-12 37l-2 33Z" style="opacity:1"/>
  <path fill="#5a5b53" d="M1016 496c17-1 34-2 52-1l-1 545V496h-51Z" style="opacity:1"/>
  <path fill="#050808" d="M840 695c9-37-3-63-36-80-19-9-38-12-58-10-60 9-98 42-116 99-2 3-5 4-9 5l-104-13c-4-2-5-5-6-8 0-11 0-22 2-32l99 11 10-32c12-32 34-56 65-70 34-13 68-14 104-3 52 22 72 61 59 117-2 6-6 11-10 16Z" style="opacity:1"/>
  <path fill="#0a0b0c" d="M952 565c16 16 29 34 39 56 24 57 18 111-16 162-16 18-32 36-50 53l-63 54-22 23a70 70 0 0 0-15 42l-2 43-6 4-15 1-104-1c-4-2-7-5-8-8v-29h10c0 7 2 14 4 22h103c7-25 16-49 24-73l115-110 14-19c20-35 32-72 38-110-8-19-16-37-25-54-4-20-11-39-21-56Z" style="opacity:1"/>
  <path fill="#eeec68" d="M804 615c33 17 45 43 36 80-10 14-22 26-36 37V615Z" style="opacity:1"/>
  <path fill="#efec68" d="M1233 633c16-2 28 5 35 21 3 21-7 34-28 38-14-1-23-8-28-20-4-19 3-32 21-39Z" style="opacity:1"/>
  <path fill="#a2a16f" d="m1100 465 1 174h95l-96 1V465Z" style="opacity:1"/>
  <path fill="#4f6a5c" d="M499 647c-1 2 0 5 1 8-2-1-2-3-2-4l1-4Z" style="opacity:1"/>
  <path fill="#17ae6a" d="M165 729c18-3 30 4 37 21 3 18-4 30-21 36-18 2-29-4-36-20-3-18 3-30 20-37Z" style="opacity:1"/>
  <path fill="#15a9e1" d="M975 783h92v257H924v34h177V783h272v578H803v-201l13-1c3-1 6-4 7-7v-104c-1-4-4-7-7-8h-14v-37l15-1 6-4 2-43c0-16 5-30 15-42l22-23 63-54c18-17 34-35 50-53Z" style="opacity:1"/>
  <path fill="#15a9e1" d="M1406 783h108l-1 643c-6 35-26 59-60 71l-650 1v-104h603V783Z" style="opacity:1"/>
  <path fill="#a19063" d="m216 785 112 1v1H215c-1-1 0-2 1-2ZM569 787v-1h172l-2 2c-57-1-114-2-170-1Z" style="opacity:1"/>
  <path fill="#6e403a" d="M51 786h81l1 1H51v636c-2-213-2-425 0-637Z" style="opacity:1"/>
  <path fill="#ef5554" d="M133 787c5 8 13 14 23 18l1 588 645 1v104l-171 3H127c-44-8-69-35-76-78V787h82Z" style="opacity:1"/>
  <path fill="#ef5555" d="M215 787h113v80H189c-1-21 0-42 1-62 10-4 18-10 25-18Z" style="opacity:1"/>
  <path fill="#ef5554" d="M360 787h65v81h-65v-81Z" style="opacity:1"/>
  <path fill="#ef5555" d="M569 787c56-1 113 0 170 1l-19 19c-13 14-23 30-31 48-12 35-16 72-12 110h13v29c1 3 4 6 8 8l104 1v37h-3l-1-27c-2-4-4-6-7-7H687c-4 1-6 3-8 7v105c1 3 3 5 6 7l18 1v25c1 4 4 6 8 8l91 1v201H190V900h235v180l121 1c-1 1 0 2 1 3 2 11 8 21 18 29 25 16 49 14 70-8 16-26 14-50-8-71-29-18-54-13-74 13l-95 1V797l111-1v-9Z" style="opacity:1"/>
  <path fill="#b3645b" d="m569 796-111 1v251c-1-84-2-168-1-252h112Z" style="opacity:1"/>
  <path fill="#010202" d="m905 1204 319 1-1-280c-27-14-37-36-29-65 14-28 36-38 67-28 23 12 33 31 28 58-5 17-16 29-33 36v311c-116-1-232 0-347 1-12 30-33 41-64 34-29-14-38-36-28-66 14-25 35-34 63-25 10 5 19 12 25 23Z" style="opacity:1"/>
  <path fill="#1da8de" d="M1234 849c18-2 30 6 36 24 1 18-7 29-24 34-18 1-29-6-34-22-2-18 5-30 22-36Z" style="opacity:1"/>
  <path fill="#be645c" d="M327 900H190v461h-1V899c46-1 92 0 138 1Z" style="opacity:1"/>
  <path fill="#6a6b6d" d="M694 919v29h79l-80 1c-1-11 0-21 1-30Z" style="opacity:1"/>
  <path fill="#040303" d="M360 1066a1175 1175 0 0 0-1 138l284-1c12-21 30-28 54-22 24 10 34 29 29 56-2 13-9 22-21 28-31 11-53 2-66-27-57-1-114-2-170-1H327l-1-159v-13c-11-4-19-10-25-19-13-25-10-48 11-67 14-11 31-13 49-8 25 11 35 31 31 59-5 17-15 29-32 36Z" style="opacity:1"/>
  <path fill="#e55" d="M336 990c25-2 37 9 36 35-6 17-18 24-36 22-16-6-23-18-22-34 3-12 10-20 22-23Z" style="opacity:1"/>
  <path fill="#0b0b0c" d="M802 1040h14c3 1 6 4 7 8v104c-1 3-4 6-7 7l-13 1h-1l-91-1c-4-2-7-4-8-8v-25l-18-1c-3-2-5-4-6-7v-105c2-4 4-6 8-7h104c3 1 5 3 7 7l1 27h3Z" style="opacity:1"/>
  <path fill="#fcfcfc" d="m780 1049-1 54-2 2a1791 1791 0 0 1-77 0l-2-1v-79l2-2h77l2 3 1 23Z" style="opacity:1"/>
  <path fill="#ed5555" d="M588 1045c26-2 38 10 36 37-7 16-19 23-36 20-21-9-26-23-18-43 4-7 10-12 18-14Z" style="opacity:1"/>
  <path d="M780 1049h25l1 4a1680 1680 0 0 1-2 85h-84l-3-4v-28l60-1 2-2 1-54Z" style="opacity:1"/>
  <path fill="#577e96" d="M1100 783h1v291H924v-34h143l-142 1v32h175V783Z" style="opacity:1"/>
  <path fill="#865d57" d="M360 1066Z" style="opacity:1"/>
  <path fill="#bd645b" d="M425 1080h122v4c-1-1-2-2-1-3l-121-1Z" style="opacity:1"/>
  <path fill="#1ea8de" d="M857 1198c16-1 27 7 32 23 2 17-6 28-22 33-25 0-36-12-33-36 4-11 12-18 23-20Z" style="opacity:1"/>
  <path fill="#ed5555" d="M676 1201c26-1 36 12 28 38-3 5-7 8-12 9-17 4-28-2-34-17-2-15 4-25 18-30Z" style="opacity:1"/>
  <path fill="#59829c" d="m1223 925 1 280-319-1h318V925Z" style="opacity:1"/>
  <path fill="#8f5e58" d="m326 1078 1 159h142l-143 1v-160Z" style="opacity:1"/>
  <path fill="#615d63" d="M802 1160h1v201h570H189h613v-201Z" style="opacity:1"/>
  <path fill="#59829d" d="M1405 783h1v611H803v-1h602V783Z" style="opacity:1"/>
  <path fill="#9e7778" d="M157 1393h646v105h-1v-104l-645-1Z" style="opacity:1"/>
</svg>